# Pilot candidate surface topology v1 triangulation B
# Same neutral vertices as the quad baseline; only the quad diagonal differs.
v 0.00000000 1.18000000 0.14000000
v 0.05176381 1.18000000 0.13182220
v 0.10000000 1.18000000 0.10784610
v 0.14142136 1.18000000 0.06970563
v 0.17320508 1.18000000 0.02000000
v 0.19318517 1.18000000 -0.03788343
v 0.20000000 1.18000000 -0.10000000
v 0.19318517 1.18000000 -0.16211657
v 0.17320508 1.18000000 -0.22000000
v 0.14142136 1.18000000 -0.26970563
v 0.10000000 1.18000000 -0.30784610
v 0.05176381 1.18000000 -0.33182220
v 0.00000000 1.18000000 -0.34000000
v -0.05176381 1.18000000 -0.33182220
v -0.10000000 1.18000000 -0.30784610
v -0.14142136 1.18000000 -0.26970563
v -0.17320508 1.18000000 -0.22000000
v -0.19318517 1.18000000 -0.16211657
v -0.20000000 1.18000000 -0.10000000
v -0.19318517 1.18000000 -0.03788343
v -0.17320508 1.18000000 0.02000000
v -0.14142136 1.18000000 0.06970563
v -0.10000000 1.18000000 0.10784610
v -0.05176381 1.18000000 0.13182220
v 0.00000000 1.08000000 0.50000000
v 0.13458590 1.08000000 0.48159995
v 0.26000000 1.08000000 0.42765372
v 0.36769553 1.08000000 0.34183766
v 0.45033321 1.08000000 0.23000000
v 0.50228143 1.08000000 0.09976228
v 0.52000000 1.08000000 -0.04000000
v 0.50228143 1.08000000 -0.17976228
v 0.45033321 1.08000000 -0.31000000
v 0.36769553 1.08000000 -0.42183766
v 0.26000000 1.08000000 -0.50765372
v 0.13458590 1.08000000 -0.56159995
v 0.00000000 1.08000000 -0.58000000
v -0.13458590 1.08000000 -0.56159995
v -0.26000000 1.08000000 -0.50765372
v -0.36769553 1.08000000 -0.42183766
v -0.45033321 1.08000000 -0.31000000
v -0.50228143 1.08000000 -0.17976228
v -0.52000000 1.08000000 -0.04000000
v -0.50228143 1.08000000 0.09976228
v -0.45033321 1.08000000 0.23000000
v -0.36769553 1.08000000 0.34183766
v -0.26000000 1.08000000 0.42765372
v -0.13458590 1.08000000 0.48159995
v 0.00000000 0.82000000 0.68000000
v 0.17858514 0.82000000 0.65682956
v 0.34500000 0.82000000 0.58889727
v 0.48790368 0.82000000 0.48083261
v 0.59755753 0.82000000 0.34000000
v 0.66648882 0.82000000 0.17599695
v 0.69000000 0.82000000 0.00000000
v 0.66648882 0.82000000 -0.17599695
v 0.59755753 0.82000000 -0.34000000
v 0.48790368 0.82000000 -0.48083261
v 0.34500000 0.82000000 -0.58889727
v 0.17858514 0.82000000 -0.65682956
v 0.00000000 0.82000000 -0.68000000
v -0.17858514 0.82000000 -0.65682956
v -0.34500000 0.82000000 -0.58889727
v -0.48790368 0.82000000 -0.48083261
v -0.59755753 0.82000000 -0.34000000
v -0.66648882 0.82000000 -0.17599695
v -0.69000000 0.82000000 -0.00000000
v -0.66648882 0.82000000 0.17599695
v -0.59755753 0.82000000 0.34000000
v -0.48790368 0.82000000 0.48083261
v -0.34500000 0.82000000 0.58889727
v -0.17858514 0.82000000 0.65682956
v 0.00000000 0.52000000 0.76000000
v 0.19929066 0.52000000 0.73478511
v 0.38500000 0.52000000 0.66085880
v 0.54447222 0.52000000 0.54325902
v 0.66683956 0.52000000 0.39000000
v 0.74376289 0.52000000 0.21152609
v 0.77000000 0.52000000 0.02000000
v 0.74376289 0.52000000 -0.17152609
v 0.66683956 0.52000000 -0.35000000
v 0.54447222 0.52000000 -0.50325902
v 0.38500000 0.52000000 -0.62085880
v 0.19929066 0.52000000 -0.69478511
v 0.00000000 0.52000000 -0.72000000
v -0.19929066 0.52000000 -0.69478511
v -0.38500000 0.52000000 -0.62085880
v -0.54447222 0.52000000 -0.50325902
v -0.66683956 0.52000000 -0.35000000
v -0.74376289 0.52000000 -0.17152609
v -0.77000000 0.52000000 0.02000000
v -0.74376289 0.52000000 0.21152609
v -0.66683956 0.52000000 0.39000000
v -0.54447222 0.52000000 0.54325902
v -0.38500000 0.52000000 0.66085880
v -0.19929066 0.52000000 0.73478511
v 0.00000000 0.24000000 0.83000000
v 0.21481981 0.24000000 0.80308140
v 0.41500000 0.24000000 0.72416007
v 0.58689863 0.24000000 0.59861436
v 0.71880109 0.24000000 0.43500000
v 0.80171844 0.24000000 0.24446705
v 0.83000000 0.24000000 0.04000000
v 0.80171844 0.24000000 -0.16446705
v 0.71880109 0.24000000 -0.35500000
v 0.58689863 0.24000000 -0.51861436
v 0.41500000 0.24000000 -0.64416007
v 0.21481981 0.24000000 -0.72308140
v 0.00000000 0.24000000 -0.75000000
v -0.21481981 0.24000000 -0.72308140
v -0.41500000 0.24000000 -0.64416007
v -0.58689863 0.24000000 -0.51861436
v -0.71880109 0.24000000 -0.35500000
v -0.80171844 0.24000000 -0.16446705
v -0.83000000 0.24000000 0.04000000
v -0.80171844 0.24000000 0.24446705
v -0.71880109 0.24000000 0.43500000
v -0.58689863 0.24000000 0.59861436
v -0.41500000 0.24000000 0.72416007
v -0.21481981 0.24000000 0.80308140
v 0.00000000 0.00000000 0.91000000
v 0.24328990 0.00000000 0.88137769
v 0.47000000 0.00000000 0.79746134
v 0.66468037 0.00000000 0.66396970
v 0.81406388 0.00000000 0.49000000
v 0.90797028 0.00000000 0.28740800
v 0.94000000 0.00000000 0.07000000
v 0.90797028 0.00000000 -0.14740800
v 0.81406388 0.00000000 -0.35000000
v 0.66468037 0.00000000 -0.52396970
v 0.47000000 0.00000000 -0.65746134
v 0.24328990 0.00000000 -0.74137769
v 0.00000000 0.00000000 -0.77000000
v -0.24328990 0.00000000 -0.74137769
v -0.47000000 0.00000000 -0.65746134
v -0.66468037 0.00000000 -0.52396970
v -0.81406388 0.00000000 -0.35000000
v -0.90797028 0.00000000 -0.14740800
v -0.94000000 0.00000000 0.07000000
v -0.90797028 0.00000000 0.28740800
v -0.81406388 0.00000000 0.49000000
v -0.66468037 0.00000000 0.66396970
v -0.47000000 0.00000000 0.79746134
v -0.24328990 0.00000000 0.88137769
v 0.00000000 -0.27000000 0.95000000
v 0.25364266 -0.27000000 0.92069621
v 0.49000000 -0.27000000 0.83478185
v 0.69296465 -0.27000000 0.69811183
v 0.84870490 -0.27000000 0.52000000
v 0.94660731 -0.27000000 0.31258438
v 0.98000000 -0.27000000 0.09000000
v 0.94660731 -0.27000000 -0.13258438
v 0.84870490 -0.27000000 -0.34000000
v 0.69296465 -0.27000000 -0.51811183
v 0.49000000 -0.27000000 -0.65478185
v 0.25364266 -0.27000000 -0.74069621
v 0.00000000 -0.27000000 -0.77000000
v -0.25364266 -0.27000000 -0.74069621
v -0.49000000 -0.27000000 -0.65478185
v -0.69296465 -0.27000000 -0.51811183
v -0.84870490 -0.27000000 -0.34000000
v -0.94660731 -0.27000000 -0.13258438
v -0.98000000 -0.27000000 0.09000000
v -0.94660731 -0.27000000 0.31258438
v -0.84870490 -0.27000000 0.52000000
v -0.69296465 -0.27000000 0.69811183
v -0.49000000 -0.27000000 0.83478185
v -0.25364266 -0.27000000 0.92069621
v 0.00000000 -0.50000000 0.91000000
v 0.23811352 -0.50000000 0.88239992
v 0.46000000 -0.50000000 0.80148058
v 0.65053824 -0.50000000 0.67275649
v 0.79674337 -0.50000000 0.50500000
v 0.88865176 -0.50000000 0.30964343
v 0.92000000 -0.50000000 0.10000000
v 0.88865176 -0.50000000 -0.10964343
v 0.79674337 -0.50000000 -0.30500000
v 0.65053824 -0.50000000 -0.47275649
v 0.46000000 -0.50000000 -0.60148058
v 0.23811352 -0.50000000 -0.68239992
v 0.00000000 -0.50000000 -0.71000000
v -0.23811352 -0.50000000 -0.68239992
v -0.46000000 -0.50000000 -0.60148058
v -0.65053824 -0.50000000 -0.47275649
v -0.79674337 -0.50000000 -0.30500000
v -0.88865176 -0.50000000 -0.10964343
v -0.92000000 -0.50000000 0.10000000
v -0.88865176 -0.50000000 0.30964343
v -0.79674337 -0.50000000 0.50500000
v -0.65053824 -0.50000000 0.67275649
v -0.46000000 -0.50000000 0.80148058
v -0.23811352 -0.50000000 0.88239992
v 0.00000000 -0.72000000 0.82000000
v 0.22258438 -0.72000000 0.79478511
v 0.43000000 -0.72000000 0.72085880
v 0.60811183 -0.72000000 0.60325902
v 0.74478185 -0.72000000 0.45000000
v 0.83069621 -0.72000000 0.27152609
v 0.86000000 -0.72000000 0.08000000
v 0.83069621 -0.72000000 -0.11152609
v 0.74478185 -0.72000000 -0.29000000
v 0.60811183 -0.72000000 -0.44325902
v 0.43000000 -0.72000000 -0.56085880
v 0.22258438 -0.72000000 -0.63478511
v 0.00000000 -0.72000000 -0.66000000
v -0.22258438 -0.72000000 -0.63478511
v -0.43000000 -0.72000000 -0.56085880
v -0.60811183 -0.72000000 -0.44325902
v -0.74478185 -0.72000000 -0.29000000
v -0.83069621 -0.72000000 -0.11152609
v -0.86000000 -0.72000000 0.08000000
v -0.83069621 -0.72000000 0.27152609
v -0.74478185 -0.72000000 0.45000000
v -0.60811183 -0.72000000 0.60325902
v -0.43000000 -0.72000000 0.72085880
v -0.22258438 -0.72000000 0.79478511
v 0.00000000 -0.90000000 0.69000000
v 0.18634971 -0.90000000 0.66785179
v 0.36000000 -0.90000000 0.60291651
v 0.50911688 -0.90000000 0.49961941
v 0.62353829 -0.90000000 0.36500000
v 0.69546659 -0.90000000 0.20823238
v 0.72000000 -0.90000000 0.04000000
v 0.69546659 -0.90000000 -0.12823238
v 0.62353829 -0.90000000 -0.28500000
v 0.50911688 -0.90000000 -0.41961941
v 0.36000000 -0.90000000 -0.52291651
v 0.18634971 -0.90000000 -0.58785179
v 0.00000000 -0.90000000 -0.61000000
v -0.18634971 -0.90000000 -0.58785179
v -0.36000000 -0.90000000 -0.52291651
v -0.50911688 -0.90000000 -0.41961941
v -0.62353829 -0.90000000 -0.28500000
v -0.69546659 -0.90000000 -0.12823238
v -0.72000000 -0.90000000 0.04000000
v -0.69546659 -0.90000000 0.20823238
v -0.62353829 -0.90000000 0.36500000
v -0.50911688 -0.90000000 0.49961941
v -0.36000000 -0.90000000 0.60291651
v -0.18634971 -0.90000000 0.66785179
v 0.00000000 -1.02000000 0.58000000
v 0.12940952 -1.02000000 0.56091846
v 0.25000000 -1.02000000 0.50497423
v 0.35355339 -1.02000000 0.41597980
v 0.43301270 -1.02000000 0.30000000
v 0.48296291 -1.02000000 0.16493867
v 0.50000000 -1.02000000 0.02000000
v 0.48296291 -1.02000000 -0.12493867
v 0.43301270 -1.02000000 -0.26000000
v 0.35355339 -1.02000000 -0.37597980
v 0.25000000 -1.02000000 -0.46497423
v 0.12940952 -1.02000000 -0.52091846
v 0.00000000 -1.02000000 -0.54000000
v -0.12940952 -1.02000000 -0.52091846
v -0.25000000 -1.02000000 -0.46497423
v -0.35355339 -1.02000000 -0.37597980
v -0.43301270 -1.02000000 -0.26000000
v -0.48296291 -1.02000000 -0.12493867
v -0.50000000 -1.02000000 0.02000000
v -0.48296291 -1.02000000 0.16493867
v -0.43301270 -1.02000000 0.30000000
v -0.35355339 -1.02000000 0.41597980
v -0.25000000 -1.02000000 0.50497423
v -0.12940952 -1.02000000 0.56091846
g envelope
f 1 25 2
f 25 26 2
f 2 26 3
f 26 27 3
f 3 27 4
f 27 28 4
f 4 28 5
f 28 29 5
f 5 29 6
f 29 30 6
f 6 30 7
f 30 31 7
f 7 31 8
f 31 32 8
f 8 32 9
f 32 33 9
f 9 33 10
f 33 34 10
f 10 34 11
f 34 35 11
f 11 35 12
f 35 36 12
f 12 36 13
f 36 37 13
f 13 37 14
f 37 38 14
f 14 38 15
f 38 39 15
f 15 39 16
f 39 40 16
f 16 40 17
f 40 41 17
f 17 41 18
f 41 42 18
f 18 42 19
f 42 43 19
f 19 43 20
f 43 44 20
f 20 44 21
f 44 45 21
f 21 45 22
f 45 46 22
f 22 46 23
f 46 47 23
f 23 47 24
f 47 48 24
f 24 48 1
f 48 25 1
f 25 49 26
f 49 50 26
f 26 50 27
f 50 51 27
f 27 51 28
f 51 52 28
f 28 52 29
f 52 53 29
f 29 53 30
f 53 54 30
f 30 54 31
f 54 55 31
f 31 55 32
f 55 56 32
f 32 56 33
f 56 57 33
f 33 57 34
f 57 58 34
f 34 58 35
f 58 59 35
f 35 59 36
f 59 60 36
f 36 60 37
f 60 61 37
f 37 61 38
f 61 62 38
f 38 62 39
f 62 63 39
f 39 63 40
f 63 64 40
f 40 64 41
f 64 65 41
f 41 65 42
f 65 66 42
f 42 66 43
f 66 67 43
f 43 67 44
f 67 68 44
f 44 68 45
f 68 69 45
f 45 69 46
f 69 70 46
f 46 70 47
f 70 71 47
f 47 71 48
f 71 72 48
f 48 72 25
f 72 49 25
f 49 73 50
f 73 74 50
f 50 74 51
f 74 75 51
f 51 75 52
f 75 76 52
f 52 76 53
f 76 77 53
f 53 77 54
f 77 78 54
f 54 78 55
f 78 79 55
f 55 79 56
f 79 80 56
f 56 80 57
f 80 81 57
f 57 81 58
f 81 82 58
f 58 82 59
f 82 83 59
f 59 83 60
f 83 84 60
f 60 84 61
f 84 85 61
f 61 85 62
f 85 86 62
f 62 86 63
f 86 87 63
f 63 87 64
f 87 88 64
f 64 88 65
f 88 89 65
f 65 89 66
f 89 90 66
f 66 90 67
f 90 91 67
f 67 91 68
f 91 92 68
f 68 92 69
f 92 93 69
f 69 93 70
f 93 94 70
f 70 94 71
f 94 95 71
f 71 95 72
f 95 96 72
f 72 96 49
f 96 73 49
f 73 97 74
f 97 98 74
f 74 98 75
f 98 99 75
f 75 99 76
f 99 100 76
f 76 100 77
f 100 101 77
f 77 101 78
f 101 102 78
f 78 102 79
f 102 103 79
f 79 103 80
f 103 104 80
f 80 104 81
f 104 105 81
f 81 105 82
f 105 106 82
f 82 106 83
f 106 107 83
f 83 107 84
f 107 108 84
f 84 108 85
f 108 109 85
f 85 109 86
f 109 110 86
f 86 110 87
f 110 111 87
f 87 111 88
f 111 112 88
f 88 112 89
f 112 113 89
f 89 113 90
f 113 114 90
f 90 114 91
f 114 115 91
f 91 115 92
f 115 116 92
f 92 116 93
f 116 117 93
f 93 117 94
f 117 118 94
f 94 118 95
f 118 119 95
f 95 119 96
f 119 120 96
f 96 120 73
f 120 97 73
f 97 121 98
f 121 122 98
f 98 122 99
f 122 123 99
f 99 123 100
f 123 124 100
f 100 124 101
f 124 125 101
f 101 125 102
f 125 126 102
f 102 126 103
f 126 127 103
f 103 127 104
f 127 128 104
f 104 128 105
f 128 129 105
f 105 129 106
f 129 130 106
f 106 130 107
f 130 131 107
f 107 131 108
f 131 132 108
f 108 132 109
f 132 133 109
f 109 133 110
f 133 134 110
f 110 134 111
f 134 135 111
f 111 135 112
f 135 136 112
f 112 136 113
f 136 137 113
f 113 137 114
f 137 138 114
f 114 138 115
f 138 139 115
f 115 139 116
f 139 140 116
f 116 140 117
f 140 141 117
f 117 141 118
f 141 142 118
f 118 142 119
f 142 143 119
f 119 143 120
f 143 144 120
f 120 144 97
f 144 121 97
f 121 145 122
f 145 146 122
f 122 146 123
f 146 147 123
f 123 147 124
f 147 148 124
f 124 148 125
f 148 149 125
f 125 149 126
f 149 150 126
f 126 150 127
f 150 151 127
f 127 151 128
f 151 152 128
f 128 152 129
f 152 153 129
f 129 153 130
f 153 154 130
f 130 154 131
f 154 155 131
f 131 155 132
f 155 156 132
f 132 156 133
f 156 157 133
f 133 157 134
f 157 158 134
f 134 158 135
f 158 159 135
f 135 159 136
f 159 160 136
f 136 160 137
f 160 161 137
f 137 161 138
f 161 162 138
f 138 162 139
f 162 163 139
f 139 163 140
f 163 164 140
f 140 164 141
f 164 165 141
f 141 165 142
f 165 166 142
f 142 166 143
f 166 167 143
f 143 167 144
f 167 168 144
f 144 168 121
f 168 145 121
f 145 169 146
f 169 170 146
f 146 170 147
f 170 171 147
f 147 171 148
f 171 172 148
f 148 172 149
f 172 173 149
f 149 173 150
f 173 174 150
f 150 174 151
f 174 175 151
f 151 175 152
f 175 176 152
f 152 176 153
f 176 177 153
f 153 177 154
f 177 178 154
f 154 178 155
f 178 179 155
f 155 179 156
f 179 180 156
f 156 180 157
f 180 181 157
f 157 181 158
f 181 182 158
f 158 182 159
f 182 183 159
f 159 183 160
f 183 184 160
f 160 184 161
f 184 185 161
f 161 185 162
f 185 186 162
f 162 186 163
f 186 187 163
f 163 187 164
f 187 188 164
f 164 188 165
f 188 189 165
f 165 189 166
f 189 190 166
f 166 190 167
f 190 191 167
f 167 191 168
f 191 192 168
f 168 192 145
f 192 169 145
f 169 193 170
f 193 194 170
f 170 194 171
f 194 195 171
f 171 195 172
f 195 196 172
f 172 196 173
f 196 197 173
f 173 197 174
f 197 198 174
f 174 198 175
f 198 199 175
f 175 199 176
f 199 200 176
f 176 200 177
f 200 201 177
f 177 201 178
f 201 202 178
f 178 202 179
f 202 203 179
f 179 203 180
f 203 204 180
f 180 204 181
f 204 205 181
f 181 205 182
f 205 206 182
f 182 206 183
f 206 207 183
f 183 207 184
f 207 208 184
f 184 208 185
f 208 209 185
f 185 209 186
f 209 210 186
f 186 210 187
f 210 211 187
f 187 211 188
f 211 212 188
f 188 212 189
f 212 213 189
f 189 213 190
f 213 214 190
f 190 214 191
f 214 215 191
f 191 215 192
f 215 216 192
f 192 216 169
f 216 193 169
f 193 217 194
f 217 218 194
f 194 218 195
f 218 219 195
f 195 219 196
f 219 220 196
f 196 220 197
f 220 221 197
f 197 221 198
f 221 222 198
f 198 222 199
f 222 223 199
f 199 223 200
f 223 224 200
f 200 224 201
f 224 225 201
f 201 225 202
f 225 226 202
f 202 226 203
f 226 227 203
f 203 227 204
f 227 228 204
f 204 228 205
f 228 229 205
f 205 229 206
f 229 230 206
f 206 230 207
f 230 231 207
f 207 231 208
f 231 232 208
f 208 232 209
f 232 233 209
f 209 233 210
f 233 234 210
f 210 234 211
f 234 235 211
f 211 235 212
f 235 236 212
f 212 236 213
f 236 237 213
f 213 237 214
f 237 238 214
f 214 238 215
f 238 239 215
f 215 239 216
f 239 240 216
f 216 240 193
f 240 217 193
f 217 241 218
f 241 242 218
f 218 242 219
f 242 243 219
f 219 243 220
f 243 244 220
f 220 244 221
f 244 245 221
f 221 245 222
f 245 246 222
f 222 246 223
f 246 247 223
f 223 247 224
f 247 248 224
f 224 248 225
f 248 249 225
f 225 249 226
f 249 250 226
f 226 250 227
f 250 251 227
f 227 251 228
f 251 252 228
f 228 252 229
f 252 253 229
f 229 253 230
f 253 254 230
f 230 254 231
f 254 255 231
f 231 255 232
f 255 256 232
f 232 256 233
f 256 257 233
f 233 257 234
f 257 258 234
f 234 258 235
f 258 259 235
f 235 259 236
f 259 260 236
f 236 260 237
f 260 261 237
f 237 261 238
f 261 262 238
f 238 262 239
f 262 263 239
f 239 263 240
f 263 264 240
f 240 264 217
f 264 241 217
