# Pilot facial feature topology v2 triangulation B
# Seven deliberate local patches; NOT yet stitched into the head envelope.
g eye_L
v -0.510000 0.200000 0.692960
v -0.503526 0.219411 0.688101
v -0.484545 0.237500 0.692598
v -0.454350 0.253033 0.707290
v -0.415000 0.264952 0.727042
v -0.369176 0.272444 0.748574
v -0.320000 0.275000 0.769501
v -0.270824 0.272444 0.788218
v -0.225000 0.264952 0.803958
v -0.185650 0.253033 0.816648
v -0.155455 0.237500 0.826883
v -0.136474 0.219411 0.836295
v -0.130000 0.200000 0.843904
v -0.136474 0.180589 0.849570
v -0.155455 0.162500 0.852724
v -0.185650 0.146967 0.852482
v -0.225000 0.135048 0.847880
v -0.270824 0.127556 0.838143
v -0.320000 0.125000 0.822964
v -0.369176 0.127556 0.802715
v -0.415000 0.135048 0.778593
v -0.454350 0.146967 0.752649
v -0.484545 0.162500 0.727666
v -0.503526 0.180589 0.706795
v -0.555000 0.200000 0.658780
v -0.546993 0.228470 0.650301
v -0.523516 0.255000 0.658310
v -0.486170 0.277782 0.678833
v -0.437500 0.295263 0.705278
v -0.380822 0.306252 0.733449
v -0.320000 0.310000 0.760061
v -0.259178 0.306252 0.783122
v -0.202500 0.295263 0.801911
v -0.153830 0.277782 0.816714
v -0.116484 0.255000 0.828397
v -0.093007 0.228470 0.838916
v -0.085000 0.200000 0.849316
v -0.093007 0.171530 0.858121
v -0.116484 0.145000 0.864435
v -0.153830 0.122218 0.866833
v -0.202500 0.104737 0.863725
v -0.259178 0.093748 0.853758
v -0.320000 0.090000 0.836181
v -0.380822 0.093748 0.811143
v -0.437500 0.104737 0.779916
v -0.486170 0.122218 0.745009
v -0.523516 0.145000 0.710131
v -0.546993 0.171530 0.679851
v -0.620000 0.200000 0.599897
v -0.609778 0.241411 0.585453
v -0.579808 0.280000 0.601686
v -0.532132 0.313137 0.632888
v -0.470000 0.338564 0.671590
v -0.397646 0.354548 0.711043
v -0.320000 0.360000 0.746549
v -0.242354 0.354548 0.775701
v -0.170000 0.338564 0.798108
v -0.107868 0.313137 0.814869
v -0.060192 0.280000 0.827895
v -0.030222 0.241411 0.839123
v -0.020000 0.200000 0.853111
v -0.030222 0.158589 0.866647
v -0.060192 0.120000 0.878113
v -0.107868 0.086863 0.885124
v -0.170000 0.061436 0.885018
v -0.242354 0.045452 0.875460
v -0.320000 0.040000 0.854930
v -0.397646 0.045452 0.823108
v -0.470000 0.061436 0.781170
v -0.532132 0.086863 0.732067
v -0.579808 0.120000 0.680732
v -0.609778 0.158589 0.634027
f 1 2 25
f 2 26 25
f 2 3 26
f 3 27 26
f 3 4 27
f 4 28 27
f 4 5 28
f 5 29 28
f 5 6 29
f 6 30 29
f 6 7 30
f 7 31 30
f 7 8 31
f 8 32 31
f 8 9 32
f 9 33 32
f 9 10 33
f 10 34 33
f 10 11 34
f 11 35 34
f 11 12 35
f 12 36 35
f 12 13 36
f 13 37 36
f 13 14 37
f 14 38 37
f 14 15 38
f 15 39 38
f 15 16 39
f 16 40 39
f 16 17 40
f 17 41 40
f 17 18 41
f 18 42 41
f 18 19 42
f 19 43 42
f 19 20 43
f 20 44 43
f 20 21 44
f 21 45 44
f 21 22 45
f 22 46 45
f 22 23 46
f 23 47 46
f 23 24 47
f 24 48 47
f 24 1 48
f 1 25 48
f 25 26 49
f 26 50 49
f 26 27 50
f 27 51 50
f 27 28 51
f 28 52 51
f 28 29 52
f 29 53 52
f 29 30 53
f 30 54 53
f 30 31 54
f 31 55 54
f 31 32 55
f 32 56 55
f 32 33 56
f 33 57 56
f 33 34 57
f 34 58 57
f 34 35 58
f 35 59 58
f 35 36 59
f 36 60 59
f 36 37 60
f 37 61 60
f 37 38 61
f 38 62 61
f 38 39 62
f 39 63 62
f 39 40 63
f 40 64 63
f 40 41 64
f 41 65 64
f 41 42 65
f 42 66 65
f 42 43 66
f 43 67 66
f 43 44 67
f 44 68 67
f 44 45 68
f 45 69 68
f 45 46 69
f 46 70 69
f 46 47 70
f 47 71 70
f 47 48 71
f 48 72 71
f 48 25 72
f 25 49 72
g eye_R
v 0.510000 0.200000 0.692960
v 0.503526 0.219411 0.688101
v 0.484545 0.237500 0.692598
v 0.454350 0.253033 0.707290
v 0.415000 0.264952 0.727042
v 0.369176 0.272444 0.748574
v 0.320000 0.275000 0.769501
v 0.270824 0.272444 0.788218
v 0.225000 0.264952 0.803958
v 0.185650 0.253033 0.816648
v 0.155455 0.237500 0.826883
v 0.136474 0.219411 0.836295
v 0.130000 0.200000 0.843904
v 0.136474 0.180589 0.849570
v 0.155455 0.162500 0.852724
v 0.185650 0.146967 0.852482
v 0.225000 0.135048 0.847880
v 0.270824 0.127556 0.838143
v 0.320000 0.125000 0.822964
v 0.369176 0.127556 0.802715
v 0.415000 0.135048 0.778593
v 0.454350 0.146967 0.752649
v 0.484545 0.162500 0.727666
v 0.503526 0.180589 0.706795
v 0.555000 0.200000 0.658780
v 0.546993 0.228470 0.650301
v 0.523516 0.255000 0.658310
v 0.486170 0.277782 0.678833
v 0.437500 0.295263 0.705278
v 0.380822 0.306252 0.733449
v 0.320000 0.310000 0.760061
v 0.259178 0.306252 0.783122
v 0.202500 0.295263 0.801911
v 0.153830 0.277782 0.816714
v 0.116484 0.255000 0.828397
v 0.093007 0.228470 0.838916
v 0.085000 0.200000 0.849316
v 0.093007 0.171530 0.858121
v 0.116484 0.145000 0.864435
v 0.153830 0.122218 0.866833
v 0.202500 0.104737 0.863725
v 0.259178 0.093748 0.853758
v 0.320000 0.090000 0.836181
v 0.380822 0.093748 0.811143
v 0.437500 0.104737 0.779916
v 0.486170 0.122218 0.745009
v 0.523516 0.145000 0.710131
v 0.546993 0.171530 0.679851
v 0.620000 0.200000 0.599897
v 0.609778 0.241411 0.585453
v 0.579808 0.280000 0.601686
v 0.532132 0.313137 0.632888
v 0.470000 0.338564 0.671590
v 0.397646 0.354548 0.711043
v 0.320000 0.360000 0.746549
v 0.242354 0.354548 0.775701
v 0.170000 0.338564 0.798108
v 0.107868 0.313137 0.814869
v 0.060192 0.280000 0.827895
v 0.030222 0.241411 0.839123
v 0.020000 0.200000 0.853111
v 0.030222 0.158589 0.866647
v 0.060192 0.120000 0.878113
v 0.107868 0.086863 0.885124
v 0.170000 0.061436 0.885018
v 0.242354 0.045452 0.875460
v 0.320000 0.040000 0.854930
v 0.397646 0.045452 0.823108
v 0.470000 0.061436 0.781170
v 0.532132 0.086863 0.732067
v 0.579808 0.120000 0.680732
v 0.609778 0.158589 0.634027
f 73 97 74
f 97 98 74
f 74 98 75
f 98 99 75
f 75 99 76
f 99 100 76
f 76 100 77
f 100 101 77
f 77 101 78
f 101 102 78
f 78 102 79
f 102 103 79
f 79 103 80
f 103 104 80
f 80 104 81
f 104 105 81
f 81 105 82
f 105 106 82
f 82 106 83
f 106 107 83
f 83 107 84
f 107 108 84
f 84 108 85
f 108 109 85
f 85 109 86
f 109 110 86
f 86 110 87
f 110 111 87
f 87 111 88
f 111 112 88
f 88 112 89
f 112 113 89
f 89 113 90
f 113 114 90
f 90 114 91
f 114 115 91
f 91 115 92
f 115 116 92
f 92 116 93
f 116 117 93
f 93 117 94
f 117 118 94
f 94 118 95
f 118 119 95
f 95 119 96
f 119 120 96
f 96 120 73
f 120 97 73
f 97 121 98
f 121 122 98
f 98 122 99
f 122 123 99
f 99 123 100
f 123 124 100
f 100 124 101
f 124 125 101
f 101 125 102
f 125 126 102
f 102 126 103
f 126 127 103
f 103 127 104
f 127 128 104
f 104 128 105
f 128 129 105
f 105 129 106
f 129 130 106
f 106 130 107
f 130 131 107
f 107 131 108
f 131 132 108
f 108 132 109
f 132 133 109
f 109 133 110
f 133 134 110
f 110 134 111
f 134 135 111
f 111 135 112
f 135 136 112
f 112 136 113
f 136 137 113
f 113 137 114
f 137 138 114
f 114 138 115
f 138 139 115
f 115 139 116
f 139 140 116
f 116 140 117
f 140 141 117
f 117 141 118
f 141 142 118
f 118 142 119
f 142 143 119
f 119 143 120
f 143 144 120
f 120 144 97
f 144 121 97
g mouth
v 0.250000 -0.480000 0.893186
v 0.237764 -0.464549 0.898945
v 0.202254 -0.450611 0.909068
v 0.146946 -0.439549 0.920301
v 0.077254 -0.432447 0.928944
v 0.000000 -0.430000 0.932174
v -0.077254 -0.432447 0.928944
v -0.146946 -0.439549 0.920301
v -0.202254 -0.450611 0.909068
v -0.237764 -0.464549 0.898945
v -0.250000 -0.480000 0.893186
v -0.237764 -0.495451 0.893312
v -0.202254 -0.509389 0.896304
v -0.146946 -0.520451 0.901191
v -0.077254 -0.527553 0.905852
v -0.000000 -0.530000 0.907727
v 0.077254 -0.527553 0.905852
v 0.146946 -0.520451 0.901191
v 0.202254 -0.509389 0.896304
v 0.237764 -0.495451 0.893312
v 0.300000 -0.480000 0.879481
v 0.285317 -0.455279 0.888393
v 0.242705 -0.432977 0.903544
v 0.176336 -0.415279 0.920094
v 0.092705 -0.403915 0.932703
v 0.000000 -0.400000 0.937391
v -0.092705 -0.403915 0.932703
v -0.176336 -0.415279 0.920094
v -0.242705 -0.432977 0.903544
v -0.285317 -0.455279 0.888393
v -0.300000 -0.480000 0.879481
v -0.285317 -0.504721 0.878091
v -0.242705 -0.527023 0.880086
v -0.176336 -0.544721 0.886548
v -0.092705 -0.556085 0.892886
v -0.000000 -0.560000 0.895455
v 0.092705 -0.556085 0.892886
v 0.176336 -0.544721 0.886548
v 0.242705 -0.527023 0.880086
v 0.285317 -0.504721 0.878091
v 0.380000 -0.480000 0.851624
v 0.361401 -0.436738 0.867193
v 0.307426 -0.397710 0.892685
v 0.223358 -0.366738 0.919895
v 0.117426 -0.346852 0.940301
v 0.000000 -0.340000 0.947826
v -0.117426 -0.346852 0.940301
v -0.223358 -0.366738 0.919895
v -0.307426 -0.397710 0.892685
v -0.361401 -0.436738 0.867193
v -0.380000 -0.480000 0.851624
v -0.361401 -0.523262 0.845025
v -0.307426 -0.562290 0.847316
v -0.223358 -0.593262 0.857132
v -0.117426 -0.613148 0.866933
v -0.000000 -0.620000 0.870909
v 0.117426 -0.613148 0.866933
v 0.223358 -0.593262 0.857132
v 0.307426 -0.562290 0.847316
v 0.361401 -0.523262 0.845025
f 145 165 146
f 165 166 146
f 146 166 147
f 166 167 147
f 147 167 148
f 167 168 148
f 148 168 149
f 168 169 149
f 149 169 150
f 169 170 150
f 150 170 151
f 170 171 151
f 151 171 152
f 171 172 152
f 152 172 153
f 172 173 153
f 153 173 154
f 173 174 154
f 154 174 155
f 174 175 155
f 155 175 156
f 175 176 156
f 156 176 157
f 176 177 157
f 157 177 158
f 177 178 158
f 158 178 159
f 178 179 159
f 159 179 160
f 179 180 160
f 160 180 161
f 180 181 161
f 161 181 162
f 181 182 162
f 162 182 163
f 182 183 163
f 163 183 164
f 183 184 164
f 164 184 145
f 184 165 145
f 165 185 166
f 185 186 166
f 166 186 167
f 186 187 167
f 167 187 168
f 187 188 168
f 168 188 169
f 188 189 169
f 169 189 170
f 189 190 170
f 170 190 171
f 190 191 171
f 171 191 172
f 191 192 172
f 172 192 173
f 192 193 173
f 173 193 174
f 193 194 174
f 174 194 175
f 194 195 175
f 175 195 176
f 195 196 176
f 176 196 177
f 196 197 177
f 177 197 178
f 197 198 178
f 178 198 179
f 198 199 179
f 179 199 180
f 199 200 180
f 180 200 181
f 200 201 181
f 181 201 182
f 201 202 182
f 182 202 183
f 202 203 183
f 183 203 184
f 203 204 184
f 184 204 165
f 204 185 165
g modiolus_L
v -0.340000 -0.470000 0.870419
v -0.380000 -0.470000 0.855595
v -0.368284 -0.448787 0.864282
v -0.340000 -0.440000 0.876171
v -0.311716 -0.448787 0.883760
v -0.300000 -0.470000 0.883357
v -0.311716 -0.491213 0.875750
v -0.340000 -0.500000 0.864656
v -0.368284 -0.491213 0.855989
v -0.430000 -0.470000 0.834235
v -0.403640 -0.420503 0.855805
v -0.340000 -0.400000 0.883826
v -0.276360 -0.420503 0.899323
v -0.250000 -0.470000 0.897019
v -0.276360 -0.519497 0.876458
v -0.340000 -0.540000 0.847777
v -0.403640 -0.519497 0.831526
f 205 207 206
f 205 208 207
f 205 209 208
f 205 210 209
f 205 211 210
f 205 212 211
f 205 213 212
f 205 206 213
f 206 207 214
f 207 215 214
f 207 208 215
f 208 216 215
f 208 209 216
f 209 217 216
f 209 210 217
f 210 218 217
f 210 211 218
f 211 219 218
f 211 212 219
f 212 220 219
f 212 213 220
f 213 221 220
f 213 206 221
f 206 214 221
g modiolus_R
v 0.340000 -0.470000 0.870419
v 0.380000 -0.470000 0.855595
v 0.368284 -0.448787 0.864282
v 0.340000 -0.440000 0.876171
v 0.311716 -0.448787 0.883760
v 0.300000 -0.470000 0.883357
v 0.311716 -0.491213 0.875750
v 0.340000 -0.500000 0.864656
v 0.368284 -0.491213 0.855989
v 0.430000 -0.470000 0.834235
v 0.403640 -0.420503 0.855805
v 0.340000 -0.400000 0.883826
v 0.276360 -0.420503 0.899323
v 0.250000 -0.470000 0.897019
v 0.276360 -0.519497 0.876458
v 0.340000 -0.540000 0.847777
v 0.403640 -0.519497 0.831526
f 222 223 224
f 222 224 225
f 222 225 226
f 222 226 227
f 222 227 228
f 222 228 229
f 222 229 230
f 222 230 223
f 223 231 224
f 231 232 224
f 224 232 225
f 232 233 225
f 225 233 226
f 233 234 226
f 226 234 227
f 234 235 227
f 227 235 228
f 235 236 228
f 228 236 229
f 236 237 229
f 229 237 230
f 237 238 230
f 230 238 223
f 238 231 223
g nasolabial_L
v -0.124861 -0.228111 0.951721
v -0.136835 -0.243336 0.952576
v -0.149089 -0.259426 0.953400
v -0.161616 -0.276378 0.952094
v -0.174412 -0.294189 0.946969
v -0.187474 -0.312858 0.941468
v -0.200798 -0.332380 0.935575
v -0.214382 -0.352756 0.929273
v -0.228222 -0.373982 0.922543
v -0.242317 -0.396056 0.915366
v -0.256666 -0.418979 0.907719
v -0.271265 -0.442747 0.899578
v -0.286115 -0.467360 0.890917
v -0.301213 -0.492816 0.881706
v -0.160000 -0.200000 0.942912
v -0.172426 -0.215799 0.943394
v -0.185089 -0.232426 0.943828
v -0.197988 -0.249882 0.944207
v -0.211124 -0.268166 0.944526
v -0.224497 -0.287278 0.939012
v -0.238107 -0.307219 0.932478
v -0.251953 -0.327988 0.925515
v -0.266036 -0.349586 0.918101
v -0.280355 -0.372012 0.910216
v -0.294911 -0.395266 0.901833
v -0.309704 -0.419349 0.892926
v -0.324734 -0.444260 0.883466
v -0.340000 -0.470000 0.873419
v -0.195139 -0.171889 0.932865
v -0.208017 -0.188262 0.932936
v -0.221089 -0.205426 0.932943
v -0.234360 -0.223385 0.932881
v -0.247836 -0.242142 0.932744
v -0.261520 -0.261699 0.932526
v -0.275415 -0.282058 0.928121
v -0.289524 -0.303221 0.920459
v -0.303849 -0.325190 0.912323
v -0.318393 -0.347967 0.903688
v -0.333157 -0.371554 0.894527
v -0.348143 -0.395951 0.884808
v -0.363353 -0.421161 0.874499
v -0.378787 -0.447184 0.863561
f 239 253 240
f 253 254 240
f 240 254 241
f 254 255 241
f 241 255 242
f 255 256 242
f 242 256 243
f 256 257 243
f 243 257 244
f 257 258 244
f 244 258 245
f 258 259 245
f 245 259 246
f 259 260 246
f 246 260 247
f 260 261 247
f 247 261 248
f 261 262 248
f 248 262 249
f 262 263 249
f 249 263 250
f 263 264 250
f 250 264 251
f 264 265 251
f 251 265 252
f 265 266 252
f 253 267 254
f 267 268 254
f 254 268 255
f 268 269 255
f 255 269 256
f 269 270 256
f 256 270 257
f 270 271 257
f 257 271 258
f 271 272 258
f 258 272 259
f 272 273 259
f 259 273 260
f 273 274 260
f 260 274 261
f 274 275 261
f 261 275 262
f 275 276 262
f 262 276 263
f 276 277 263
f 263 277 264
f 277 278 264
f 264 278 265
f 278 279 265
f 265 279 266
f 279 280 266
g nasolabial_R
v 0.124861 -0.228111 0.951721
v 0.136835 -0.243336 0.952576
v 0.149089 -0.259426 0.953400
v 0.161616 -0.276378 0.952094
v 0.174412 -0.294189 0.946969
v 0.187474 -0.312858 0.941468
v 0.200798 -0.332380 0.935575
v 0.214382 -0.352756 0.929273
v 0.228222 -0.373982 0.922543
v 0.242317 -0.396056 0.915366
v 0.256666 -0.418979 0.907719
v 0.271265 -0.442747 0.899578
v 0.286115 -0.467360 0.890917
v 0.301213 -0.492816 0.881706
v 0.160000 -0.200000 0.942912
v 0.172426 -0.215799 0.943394
v 0.185089 -0.232426 0.943828
v 0.197988 -0.249882 0.944207
v 0.211124 -0.268166 0.944526
v 0.224497 -0.287278 0.939012
v 0.238107 -0.307219 0.932478
v 0.251953 -0.327988 0.925515
v 0.266036 -0.349586 0.918101
v 0.280355 -0.372012 0.910216
v 0.294911 -0.395266 0.901833
v 0.309704 -0.419349 0.892926
v 0.324734 -0.444260 0.883466
v 0.340000 -0.470000 0.873419
v 0.195139 -0.171889 0.932865
v 0.208017 -0.188262 0.932936
v 0.221089 -0.205426 0.932943
v 0.234360 -0.223385 0.932881
v 0.247836 -0.242142 0.932744
v 0.261520 -0.261699 0.932526
v 0.275415 -0.282058 0.928121
v 0.289524 -0.303221 0.920459
v 0.303849 -0.325190 0.912323
v 0.318393 -0.347967 0.903688
v 0.333157 -0.371554 0.894527
v 0.348143 -0.395951 0.884808
v 0.363353 -0.421161 0.874499
v 0.378787 -0.447184 0.863561
f 281 282 295
f 282 296 295
f 282 283 296
f 283 297 296
f 283 284 297
f 284 298 297
f 284 285 298
f 285 299 298
f 285 286 299
f 286 300 299
f 286 287 300
f 287 301 300
f 287 288 301
f 288 302 301
f 288 289 302
f 289 303 302
f 289 290 303
f 290 304 303
f 290 291 304
f 291 305 304
f 291 292 305
f 292 306 305
f 292 293 306
f 293 307 306
f 293 294 307
f 294 308 307
f 295 296 309
f 296 310 309
f 296 297 310
f 297 311 310
f 297 298 311
f 298 312 311
f 298 299 312
f 299 313 312
f 299 300 313
f 300 314 313
f 300 301 314
f 301 315 314
f 301 302 315
f 302 316 315
f 302 303 316
f 303 317 316
f 303 304 317
f 304 318 317
f 304 305 318
f 305 319 318
f 305 306 319
f 306 320 319
f 306 307 320
f 307 321 320
f 307 308 321
f 308 322 321
