# Pilot control cage v0
# Unitless normalized coordinates. x left/right, y inferior/superior, z posterior/anterior.
# Face looks toward +z.
# Line cage only: NOT a surface topology and NOT a biomechanics volume mesh.
v 0.000000 1.180000 0.140000
v 0.051764 1.180000 0.131822
v 0.100000 1.180000 0.107846
v 0.141421 1.180000 0.069706
v 0.173205 1.180000 0.020000
v 0.193185 1.180000 -0.037883
v 0.200000 1.180000 -0.100000
v 0.193185 1.180000 -0.162117
v 0.173205 1.180000 -0.220000
v 0.141421 1.180000 -0.269706
v 0.100000 1.180000 -0.307846
v 0.051764 1.180000 -0.331822
v 0.000000 1.180000 -0.340000
v -0.051764 1.180000 -0.331822
v -0.100000 1.180000 -0.307846
v -0.141421 1.180000 -0.269706
v -0.173205 1.180000 -0.220000
v -0.193185 1.180000 -0.162117
v -0.200000 1.180000 -0.100000
v -0.193185 1.180000 -0.037883
v -0.173205 1.180000 0.020000
v -0.141421 1.180000 0.069706
v -0.100000 1.180000 0.107846
v -0.051764 1.180000 0.131822
v 0.000000 1.080000 0.500000
v 0.134586 1.080000 0.481600
v 0.260000 1.080000 0.427654
v 0.367696 1.080000 0.341838
v 0.450333 1.080000 0.230000
v 0.502281 1.080000 0.099762
v 0.520000 1.080000 -0.040000
v 0.502281 1.080000 -0.179762
v 0.450333 1.080000 -0.310000
v 0.367696 1.080000 -0.421838
v 0.260000 1.080000 -0.507654
v 0.134586 1.080000 -0.561600
v 0.000000 1.080000 -0.580000
v -0.134586 1.080000 -0.561600
v -0.260000 1.080000 -0.507654
v -0.367696 1.080000 -0.421838
v -0.450333 1.080000 -0.310000
v -0.502281 1.080000 -0.179762
v -0.520000 1.080000 -0.040000
v -0.502281 1.080000 0.099762
v -0.450333 1.080000 0.230000
v -0.367696 1.080000 0.341838
v -0.260000 1.080000 0.427654
v -0.134586 1.080000 0.481600
v 0.000000 0.820000 0.680000
v 0.178585 0.820000 0.656830
v 0.345000 0.820000 0.588897
v 0.487904 0.820000 0.480833
v 0.597558 0.820000 0.340000
v 0.666489 0.820000 0.175997
v 0.690000 0.820000 0.000000
v 0.666489 0.820000 -0.175997
v 0.597558 0.820000 -0.340000
v 0.487904 0.820000 -0.480833
v 0.345000 0.820000 -0.588897
v 0.178585 0.820000 -0.656830
v 0.000000 0.820000 -0.680000
v -0.178585 0.820000 -0.656830
v -0.345000 0.820000 -0.588897
v -0.487904 0.820000 -0.480833
v -0.597558 0.820000 -0.340000
v -0.666489 0.820000 -0.175997
v -0.690000 0.820000 -0.000000
v -0.666489 0.820000 0.175997
v -0.597558 0.820000 0.340000
v -0.487904 0.820000 0.480833
v -0.345000 0.820000 0.588897
v -0.178585 0.820000 0.656830
v 0.000000 0.520000 0.760000
v 0.199291 0.520000 0.734785
v 0.385000 0.520000 0.660859
v 0.544472 0.520000 0.543259
v 0.666840 0.520000 0.390000
v 0.743763 0.520000 0.211526
v 0.770000 0.520000 0.020000
v 0.743763 0.520000 -0.171526
v 0.666840 0.520000 -0.350000
v 0.544472 0.520000 -0.503259
v 0.385000 0.520000 -0.620859
v 0.199291 0.520000 -0.694785
v 0.000000 0.520000 -0.720000
v -0.199291 0.520000 -0.694785
v -0.385000 0.520000 -0.620859
v -0.544472 0.520000 -0.503259
v -0.666840 0.520000 -0.350000
v -0.743763 0.520000 -0.171526
v -0.770000 0.520000 0.020000
v -0.743763 0.520000 0.211526
v -0.666840 0.520000 0.390000
v -0.544472 0.520000 0.543259
v -0.385000 0.520000 0.660859
v -0.199291 0.520000 0.734785
v 0.000000 0.240000 0.830000
v 0.214820 0.240000 0.803081
v 0.415000 0.240000 0.724160
v 0.586899 0.240000 0.598614
v 0.718801 0.240000 0.435000
v 0.801718 0.240000 0.244467
v 0.830000 0.240000 0.040000
v 0.801718 0.240000 -0.164467
v 0.718801 0.240000 -0.355000
v 0.586899 0.240000 -0.518614
v 0.415000 0.240000 -0.644160
v 0.214820 0.240000 -0.723081
v 0.000000 0.240000 -0.750000
v -0.214820 0.240000 -0.723081
v -0.415000 0.240000 -0.644160
v -0.586899 0.240000 -0.518614
v -0.718801 0.240000 -0.355000
v -0.801718 0.240000 -0.164467
v -0.830000 0.240000 0.040000
v -0.801718 0.240000 0.244467
v -0.718801 0.240000 0.435000
v -0.586899 0.240000 0.598614
v -0.415000 0.240000 0.724160
v -0.214820 0.240000 0.803081
v 0.000000 0.000000 0.910000
v 0.243290 0.000000 0.881378
v 0.470000 0.000000 0.797461
v 0.664680 0.000000 0.663970
v 0.814064 0.000000 0.490000
v 0.907970 0.000000 0.287408
v 0.940000 0.000000 0.070000
v 0.907970 0.000000 -0.147408
v 0.814064 0.000000 -0.350000
v 0.664680 0.000000 -0.523970
v 0.470000 0.000000 -0.657461
v 0.243290 0.000000 -0.741378
v 0.000000 0.000000 -0.770000
v -0.243290 0.000000 -0.741378
v -0.470000 0.000000 -0.657461
v -0.664680 0.000000 -0.523970
v -0.814064 0.000000 -0.350000
v -0.907970 0.000000 -0.147408
v -0.940000 0.000000 0.070000
v -0.907970 0.000000 0.287408
v -0.814064 0.000000 0.490000
v -0.664680 0.000000 0.663970
v -0.470000 0.000000 0.797461
v -0.243290 0.000000 0.881378
v 0.000000 -0.270000 0.950000
v 0.253643 -0.270000 0.920696
v 0.490000 -0.270000 0.834782
v 0.692965 -0.270000 0.698112
v 0.848705 -0.270000 0.520000
v 0.946607 -0.270000 0.312584
v 0.980000 -0.270000 0.090000
v 0.946607 -0.270000 -0.132584
v 0.848705 -0.270000 -0.340000
v 0.692965 -0.270000 -0.518112
v 0.490000 -0.270000 -0.654782
v 0.253643 -0.270000 -0.740696
v 0.000000 -0.270000 -0.770000
v -0.253643 -0.270000 -0.740696
v -0.490000 -0.270000 -0.654782
v -0.692965 -0.270000 -0.518112
v -0.848705 -0.270000 -0.340000
v -0.946607 -0.270000 -0.132584
v -0.980000 -0.270000 0.090000
v -0.946607 -0.270000 0.312584
v -0.848705 -0.270000 0.520000
v -0.692965 -0.270000 0.698112
v -0.490000 -0.270000 0.834782
v -0.253643 -0.270000 0.920696
v 0.000000 -0.500000 0.910000
v 0.238114 -0.500000 0.882400
v 0.460000 -0.500000 0.801481
v 0.650538 -0.500000 0.672756
v 0.796743 -0.500000 0.505000
v 0.888652 -0.500000 0.309643
v 0.920000 -0.500000 0.100000
v 0.888652 -0.500000 -0.109643
v 0.796743 -0.500000 -0.305000
v 0.650538 -0.500000 -0.472756
v 0.460000 -0.500000 -0.601481
v 0.238114 -0.500000 -0.682400
v 0.000000 -0.500000 -0.710000
v -0.238114 -0.500000 -0.682400
v -0.460000 -0.500000 -0.601481
v -0.650538 -0.500000 -0.472756
v -0.796743 -0.500000 -0.305000
v -0.888652 -0.500000 -0.109643
v -0.920000 -0.500000 0.100000
v -0.888652 -0.500000 0.309643
v -0.796743 -0.500000 0.505000
v -0.650538 -0.500000 0.672756
v -0.460000 -0.500000 0.801481
v -0.238114 -0.500000 0.882400
v 0.000000 -0.720000 0.820000
v 0.222584 -0.720000 0.794785
v 0.430000 -0.720000 0.720859
v 0.608112 -0.720000 0.603259
v 0.744782 -0.720000 0.450000
v 0.830696 -0.720000 0.271526
v 0.860000 -0.720000 0.080000
v 0.830696 -0.720000 -0.111526
v 0.744782 -0.720000 -0.290000
v 0.608112 -0.720000 -0.443259
v 0.430000 -0.720000 -0.560859
v 0.222584 -0.720000 -0.634785
v 0.000000 -0.720000 -0.660000
v -0.222584 -0.720000 -0.634785
v -0.430000 -0.720000 -0.560859
v -0.608112 -0.720000 -0.443259
v -0.744782 -0.720000 -0.290000
v -0.830696 -0.720000 -0.111526
v -0.860000 -0.720000 0.080000
v -0.830696 -0.720000 0.271526
v -0.744782 -0.720000 0.450000
v -0.608112 -0.720000 0.603259
v -0.430000 -0.720000 0.720859
v -0.222584 -0.720000 0.794785
v 0.000000 -0.900000 0.690000
v 0.186350 -0.900000 0.667852
v 0.360000 -0.900000 0.602917
v 0.509117 -0.900000 0.499619
v 0.623538 -0.900000 0.365000
v 0.695467 -0.900000 0.208232
v 0.720000 -0.900000 0.040000
v 0.695467 -0.900000 -0.128232
v 0.623538 -0.900000 -0.285000
v 0.509117 -0.900000 -0.419619
v 0.360000 -0.900000 -0.522917
v 0.186350 -0.900000 -0.587852
v 0.000000 -0.900000 -0.610000
v -0.186350 -0.900000 -0.587852
v -0.360000 -0.900000 -0.522917
v -0.509117 -0.900000 -0.419619
v -0.623538 -0.900000 -0.285000
v -0.695467 -0.900000 -0.128232
v -0.720000 -0.900000 0.040000
v -0.695467 -0.900000 0.208232
v -0.623538 -0.900000 0.365000
v -0.509117 -0.900000 0.499619
v -0.360000 -0.900000 0.602917
v -0.186350 -0.900000 0.667852
v 0.000000 -1.020000 0.580000
v 0.129410 -1.020000 0.560918
v 0.250000 -1.020000 0.504974
v 0.353553 -1.020000 0.415980
v 0.433013 -1.020000 0.300000
v 0.482963 -1.020000 0.164939
v 0.500000 -1.020000 0.020000
v 0.482963 -1.020000 -0.124939
v 0.433013 -1.020000 -0.260000
v 0.353553 -1.020000 -0.375980
v 0.250000 -1.020000 -0.464974
v 0.129410 -1.020000 -0.520918
v 0.000000 -1.020000 -0.540000
v -0.129410 -1.020000 -0.520918
v -0.250000 -1.020000 -0.464974
v -0.353553 -1.020000 -0.375980
v -0.433013 -1.020000 -0.260000
v -0.482963 -1.020000 -0.124939
v -0.500000 -1.020000 0.020000
v -0.482963 -1.020000 0.164939
v -0.433013 -1.020000 0.300000
v -0.353553 -1.020000 0.415980
v -0.250000 -1.020000 0.504974
v -0.129410 -1.020000 0.560918
v -0.085000 0.220000 0.877582
v -0.089515 0.250239 0.867434
v -0.102888 0.279316 0.857484
v -0.124605 0.306113 0.845971
v -0.153830 0.329602 0.832684
v -0.189441 0.348878 0.817342
v -0.230069 0.363201 0.799705
v -0.274154 0.372022 0.779692
v -0.320000 0.375000 0.757488
v -0.365846 0.372022 0.733640
v -0.409931 0.363201 0.709106
v -0.450559 0.348878 0.685270
v -0.486170 0.329602 0.663879
v -0.515395 0.306113 0.646888
v -0.537112 0.279316 0.636197
v -0.550485 0.250239 0.633299
v -0.555000 0.220000 0.643172
v -0.550485 0.189761 0.663143
v -0.537112 0.160684 0.689257
v -0.515395 0.133887 0.719349
v -0.486170 0.110398 0.751195
v -0.450559 0.091122 0.782757
v -0.409931 0.076799 0.812326
v -0.365846 0.067978 0.838575
v -0.320000 0.065000 0.860574
v -0.274154 0.067978 0.877773
v -0.230069 0.076799 0.889971
v -0.189441 0.091122 0.897270
v -0.153830 0.110398 0.900030
v -0.124605 0.133887 0.898793
v -0.102888 0.160684 0.894208
v -0.089515 0.189761 0.886942
v -0.570000 0.400000 0.594861
v -0.536667 0.411435 0.621978
v -0.503333 0.422371 0.646234
v -0.470000 0.432328 0.668125
v -0.436667 0.440873 0.688035
v -0.403333 0.447631 0.706259
v -0.370000 0.452308 0.723022
v -0.336667 0.454699 0.738491
v -0.303333 0.454699 0.752785
v -0.270000 0.452308 0.765977
v -0.236667 0.447631 0.778105
v -0.203333 0.440873 0.789174
v -0.170000 0.432328 0.799159
v -0.136667 0.422371 0.808014
v -0.103333 0.411435 0.815671
v -0.070000 0.400000 0.822048
v 0.555000 0.220000 0.683172
v 0.550485 0.250239 0.672531
v 0.537112 0.279316 0.673152
v 0.515395 0.306113 0.680147
v 0.486170 0.329602 0.692163
v 0.450559 0.348878 0.707493
v 0.409931 0.363201 0.724414
v 0.365846 0.372022 0.741443
v 0.320000 0.375000 0.757488
v 0.274154 0.372022 0.771888
v 0.230069 0.363201 0.784398
v 0.189441 0.348878 0.795119
v 0.153830 0.329602 0.804399
v 0.124605 0.306113 0.812712
v 0.102888 0.279316 0.820529
v 0.089515 0.250239 0.828203
v 0.085000 0.220000 0.837582
v 0.089515 0.189761 0.847711
v 0.102888 0.160684 0.857253
v 0.124605 0.133887 0.865534
v 0.153830 0.110398 0.871745
v 0.189441 0.091122 0.875047
v 0.230069 0.076799 0.874663
v 0.274154 0.067978 0.869970
v 0.320000 0.065000 0.860574
v 0.365846 0.067978 0.846378
v 0.409931 0.076799 0.827633
v 0.450559 0.091122 0.804980
v 0.486170 0.110398 0.779479
v 0.515395 0.133887 0.752608
v 0.537112 0.160684 0.726212
v 0.550485 0.189761 0.702374
v 0.070000 0.400000 0.822048
v 0.103333 0.411435 0.815671
v 0.136667 0.422371 0.808014
v 0.170000 0.432328 0.799159
v 0.203333 0.440873 0.789174
v 0.236667 0.447631 0.778105
v 0.270000 0.452308 0.765977
v 0.303333 0.454699 0.752785
v 0.336667 0.454699 0.738491
v 0.370000 0.452308 0.723022
v 0.403333 0.447631 0.706259
v 0.436667 0.440873 0.688035
v 0.470000 0.432328 0.668125
v 0.503333 0.422371 0.646234
v 0.536667 0.411435 0.621978
v 0.570000 0.400000 0.594861
v 0.340000 -0.490000 0.927578
v 0.333467 -0.469516 0.933405
v 0.314119 -0.449818 0.942442
v 0.282700 -0.431665 0.953482
v 0.240416 -0.415754 0.964947
v 0.188894 -0.402696 0.975163
v 0.130112 -0.392993 0.982611
v 0.066331 -0.387018 0.986122
v 0.000000 -0.385000 0.985000
v -0.066331 -0.387018 0.979098
v -0.130112 -0.392993 0.968835
v -0.188894 -0.402696 0.955162
v -0.240416 -0.415754 0.939491
v -0.282700 -0.431665 0.923549
v -0.314119 -0.449818 0.909183
v -0.333467 -0.469516 0.898097
v -0.340000 -0.490000 0.891578
v -0.333467 -0.510484 0.887847
v -0.314119 -0.530182 0.887023
v -0.282700 -0.548335 0.890660
v -0.240416 -0.564246 0.897458
v -0.188894 -0.577304 0.905839
v -0.130112 -0.587007 0.914230
v -0.066331 -0.592982 0.921302
v -0.000000 -0.595000 0.926136
v 0.066331 -0.592982 0.928325
v 0.130112 -0.587007 0.928007
v 0.188894 -0.577304 0.925840
v 0.240416 -0.564246 0.922914
v 0.282700 -0.548335 0.920593
v 0.314119 -0.530182 0.920283
v 0.333467 -0.510484 0.923155
v 0.000000 0.440000 0.810000
v 0.000000 0.270000 0.902500
v 0.000000 0.080000 1.063333
v 0.000000 -0.120000 1.247778
v 0.000000 -0.230000 1.064074
v 0.170000 -0.180000 1.038367
v 0.165738 -0.157748 1.034919
v 0.153165 -0.136612 1.031384
v 0.132911 -0.117651 1.027667
v 0.105993 -0.101817 1.023553
v 0.073760 -0.089903 1.018797
v 0.037829 -0.082507 1.013231
v 0.000000 -0.080000 1.006852
v -0.037829 -0.082507 0.999880
v -0.073760 -0.089903 0.992764
v -0.105993 -0.101817 0.986144
v -0.132911 -0.117651 0.980757
v -0.153165 -0.136612 0.977325
v -0.165738 -0.157748 0.976424
v -0.170000 -0.180000 0.978367
v -0.165738 -0.202252 0.983142
v -0.153165 -0.223388 0.990389
v -0.132911 -0.242349 0.999454
v -0.105993 -0.258183 1.009487
v -0.073760 -0.270097 1.019527
v -0.037829 -0.277493 1.026379
v -0.000000 -0.280000 1.033261
v 0.037829 -0.277493 1.039730
v 0.073760 -0.270097 1.045560
v 0.105993 -0.258183 1.046896
v 0.132911 -0.242349 1.046364
v 0.153165 -0.223388 1.044447
v 0.165738 -0.202252 1.041637
v -0.140000 -0.220000 0.958675
v -0.153846 -0.240000 0.959822
v -0.167692 -0.260000 0.960807
v -0.181538 -0.280000 0.958334
v -0.195385 -0.300000 0.952368
v -0.209231 -0.320000 0.946188
v -0.223077 -0.340000 0.939787
v -0.236923 -0.360000 0.933159
v -0.250769 -0.380000 0.926298
v -0.264615 -0.400000 0.919196
v -0.278462 -0.420000 0.911846
v -0.292308 -0.440000 0.904239
v -0.306154 -0.460000 0.896367
v -0.320000 -0.480000 0.888220
v -0.762485 -0.322487 0.633573
v -0.774970 -0.303935 0.625322
v -0.786011 -0.284738 0.618711
v -0.795562 -0.264978 0.610859
v -0.803584 -0.244736 0.595423
v -0.810041 -0.224098 0.581373
v -0.814908 -0.203150 0.568948
v -0.818164 -0.181979 0.558378
v -0.819796 -0.160675 0.549865
v -0.819796 -0.139325 0.543577
v -0.818164 -0.118021 0.539632
v -0.814908 -0.096850 0.538089
v -0.810041 -0.075902 0.538947
v -0.803584 -0.055264 0.542142
v -0.795562 -0.035022 0.547553
v -0.786011 -0.015262 0.555013
v -0.774970 0.003935 0.562504
v -0.762485 0.022487 0.565118
v 0.140000 -0.220000 0.958675
v 0.153846 -0.240000 0.959822
v 0.167692 -0.260000 0.960807
v 0.181538 -0.280000 0.958334
v 0.195385 -0.300000 0.952368
v 0.209231 -0.320000 0.946188
v 0.223077 -0.340000 0.939787
v 0.236923 -0.360000 0.933159
v 0.250769 -0.380000 0.926298
v 0.264615 -0.400000 0.919196
v 0.278462 -0.420000 0.911846
v 0.292308 -0.440000 0.904239
v 0.306154 -0.460000 0.896367
v 0.320000 -0.480000 0.888220
v 0.762485 -0.322487 0.633573
v 0.774970 -0.303935 0.625322
v 0.786011 -0.284738 0.618711
v 0.795562 -0.264978 0.610859
v 0.803584 -0.244736 0.595423
v 0.810041 -0.224098 0.581373
v 0.814908 -0.203150 0.568948
v 0.818164 -0.181979 0.558378
v 0.819796 -0.160675 0.549865
v 0.819796 -0.139325 0.543577
v 0.818164 -0.118021 0.539632
v 0.814908 -0.096850 0.538089
v 0.810041 -0.075902 0.538947
v 0.803584 -0.055264 0.542142
v 0.795562 -0.035022 0.547553
v 0.786011 -0.015262 0.555013
v 0.774970 0.003935 0.562504
v 0.762485 0.022487 0.565118
v -0.720000 -0.800000 0.373695
v -0.675000 -0.819622 0.417017
v -0.630000 -0.838474 0.452859
v -0.585000 -0.856535 0.483292
v -0.540000 -0.873780 0.509493
v -0.495000 -0.890184 0.532194
v -0.450000 -0.905716 0.548276
v -0.405000 -0.920343 0.557599
v -0.360000 -0.934025 0.566929
v -0.315000 -0.946716 0.576000
v -0.270000 -0.958363 0.584529
v -0.225000 -0.968898 0.592210
v -0.180000 -0.978236 0.598728
v -0.135000 -0.986265 0.603777
v -0.090000 -0.992821 0.607086
v -0.045000 -0.997632 0.608506
v 0.000000 -1.000000 0.608333
v 0.045000 -0.997632 0.608506
v 0.090000 -0.992821 0.607086
v 0.135000 -0.986265 0.603777
v 0.180000 -0.978236 0.598728
v 0.225000 -0.968898 0.592210
v 0.270000 -0.958363 0.584529
v 0.315000 -0.946716 0.576000
v 0.360000 -0.934025 0.566929
v 0.405000 -0.920343 0.557599
v 0.450000 -0.905716 0.548276
v 0.495000 -0.890184 0.532194
v 0.540000 -0.873780 0.509493
v 0.585000 -0.856535 0.483292
v 0.630000 -0.838474 0.452859
v 0.675000 -0.819622 0.417017
v 0.720000 -0.800000 0.373695
v -0.300000 -0.690000 0.801101
v -0.270000 -0.691958 0.809287
v -0.240000 -0.697639 0.814890
v -0.210000 -0.706489 0.818191
v -0.180000 -0.717639 0.819584
v -0.150000 -0.730000 0.816303
v -0.120000 -0.742361 0.811422
v -0.090000 -0.753511 0.806573
v -0.060000 -0.762361 0.802512
v -0.030000 -0.768042 0.799827
v 0.000000 -0.770000 0.798889
v 0.030000 -0.768042 0.799827
v 0.060000 -0.762361 0.802512
v 0.090000 -0.753511 0.806573
v 0.120000 -0.742361 0.811422
v 0.150000 -0.730000 0.816303
v 0.180000 -0.717639 0.819584
v 0.210000 -0.706489 0.818191
v 0.240000 -0.697639 0.814890
v 0.270000 -0.691958 0.809287
v 0.300000 -0.690000 0.801101
v 0.000000 1.180000 0.140000
v 0.000000 1.080000 0.500000
v 0.000000 0.820000 0.680000
v 0.000000 0.520000 0.760000
v 0.000000 0.240000 0.830000
v 0.000000 0.000000 0.910000
v 0.000000 -0.270000 0.950000
v 0.000000 -0.500000 0.910000
v 0.000000 -0.720000 0.820000
v 0.000000 -0.900000 0.690000
v 0.000000 -1.020000 0.580000
g ring_apex
l 1 2 3 4 5 6 7 8 9 10 11 12 13 14 15 16 17 18 19 20 21 22 23 24 1
g ring_crown
l 25 26 27 28 29 30 31 32 33 34 35 36 37 38 39 40 41 42 43 44 45 46 47 48 25
g ring_upper_forehead
l 49 50 51 52 53 54 55 56 57 58 59 60 61 62 63 64 65 66 67 68 69 70 71 72 49
g ring_brow
l 73 74 75 76 77 78 79 80 81 82 83 84 85 86 87 88 89 90 91 92 93 94 95 96 73
g ring_eye
l 97 98 99 100 101 102 103 104 105 106 107 108 109 110 111 112 113 114 115 116 117 118 119 120 97
g ring_malar
l 121 122 123 124 125 126 127 128 129 130 131 132 133 134 135 136 137 138 139 140 141 142 143 144 121
g ring_cheek
l 145 146 147 148 149 150 151 152 153 154 155 156 157 158 159 160 161 162 163 164 165 166 167 168 145
g ring_mouth
l 169 170 171 172 173 174 175 176 177 178 179 180 181 182 183 184 185 186 187 188 189 190 191 192 169
g ring_jowl
l 193 194 195 196 197 198 199 200 201 202 203 204 205 206 207 208 209 210 211 212 213 214 215 216 193
g ring_jaw
l 217 218 219 220 221 222 223 224 225 226 227 228 229 230 231 232 233 234 235 236 237 238 239 240 217
g ring_chin
l 241 242 243 244 245 246 247 248 249 250 251 252 253 254 255 256 257 258 259 260 261 262 263 264 241
g longitude_00
l 1 25 49 73 97 121 145 169 193 217 241
g longitude_01
l 2 26 50 74 98 122 146 170 194 218 242
g longitude_02
l 3 27 51 75 99 123 147 171 195 219 243
g longitude_03
l 4 28 52 76 100 124 148 172 196 220 244
g longitude_04
l 5 29 53 77 101 125 149 173 197 221 245
g longitude_05
l 6 30 54 78 102 126 150 174 198 222 246
g longitude_06
l 7 31 55 79 103 127 151 175 199 223 247
g longitude_07
l 8 32 56 80 104 128 152 176 200 224 248
g longitude_08
l 9 33 57 81 105 129 153 177 201 225 249
g longitude_09
l 10 34 58 82 106 130 154 178 202 226 250
g longitude_10
l 11 35 59 83 107 131 155 179 203 227 251
g longitude_11
l 12 36 60 84 108 132 156 180 204 228 252
g longitude_12
l 13 37 61 85 109 133 157 181 205 229 253
g longitude_13
l 14 38 62 86 110 134 158 182 206 230 254
g longitude_14
l 15 39 63 87 111 135 159 183 207 231 255
g longitude_15
l 16 40 64 88 112 136 160 184 208 232 256
g longitude_16
l 17 41 65 89 113 137 161 185 209 233 257
g longitude_17
l 18 42 66 90 114 138 162 186 210 234 258
g longitude_18
l 19 43 67 91 115 139 163 187 211 235 259
g longitude_19
l 20 44 68 92 116 140 164 188 212 236 260
g longitude_20
l 21 45 69 93 117 141 165 189 213 237 261
g longitude_21
l 22 46 70 94 118 142 166 190 214 238 262
g longitude_22
l 23 47 71 95 119 143 167 191 215 239 263
g longitude_23
l 24 48 72 96 120 144 168 192 216 240 264
g orbital_rim_L
l 265 266 267 268 269 270 271 272 273 274 275 276 277 278 279 280 281 282 283 284 285 286 287 288 289 290 291 292 293 294 295 296 265
g brow_L
l 297 298 299 300 301 302 303 304 305 306 307 308 309 310 311 312
g orbital_rim_R
l 313 314 315 316 317 318 319 320 321 322 323 324 325 326 327 328 329 330 331 332 333 334 335 336 337 338 339 340 341 342 343 344 313
g brow_R
l 345 346 347 348 349 350 351 352 353 354 355 356 357 358 359 360
g mouth_outer
l 361 362 363 364 365 366 367 368 369 370 371 372 373 374 375 376 377 378 379 380 381 382 383 384 385 386 387 388 389 390 391 392 361
g nose_ridge
l 393 394 395 396 397
g alar_base
l 398 399 400 401 402 403 404 405 406 407 408 409 410 411 412 413 414 415 416 417 418 419 420 421 422 423 424 425 398
g nasolabial_L
l 426 427 428 429 430 431 432 433 434 435 436 437 438 439
g cheek_mass_L
l 440 441 442 443 444 445 446 447 448 449 450 451 452 453 454 455 456 457
g nasolabial_R
l 458 459 460 461 462 463 464 465 466 467 468 469 470 471
g cheek_mass_R
l 472 473 474 475 476 477 478 479 480 481 482 483 484 485 486 487 488 489
g jawline_front
l 490 491 492 493 494 495 496 497 498 499 500 501 502 503 504 505 506 507 508 509 510 511 512 513 514 515 516 517 518 519 520 521 522
g labiomental_guide
l 523 524 525 526 527 528 529 530 531 532 533 534 535 536 537 538 539 540 541 542 543
g facial_midline
l 544 545 546 547 548 549 550 551 552 553 554
